<?xml version="1.0" encoding="UTF-8"?>
<svg xmlns="http://www.w3.org/2000/svg" width="476mm" height="177.471mm" viewBox="0 0 476 177.471">
  <title>Basic gable house template</title>
  <g id="CUT">
    <path id="floor" d="M 0 0 L 120 0 L 120 80 L 0 80 Z" fill="none" stroke="#ff0000" stroke-width="0.1" stroke-linejoin="miter" stroke-linecap="square"/>
    <path id="left_wall" d="M 132 0 L 252 0 L 252 55 L 132 55 Z" fill="none" stroke="#ff0000" stroke-width="0.1" stroke-linejoin="miter" stroke-linecap="square"/>
    <path id="right_wall" d="M 264 0 L 384 0 L 384 55 L 264 55 Z" fill="none" stroke="#ff0000" stroke-width="0.1" stroke-linejoin="miter" stroke-linecap="square"/>
    <path id="front_gable" d="M 396 90 L 476 90 L 476 35 L 436 0 L 396 35 Z" fill="none" stroke="#ff0000" stroke-width="0.1" stroke-linejoin="miter" stroke-linecap="square"/>
    <path id="back_gable" d="M 0 177.471 L 80 177.471 L 80 122.471 L 40 87.471 L 0 122.471 Z" fill="none" stroke="#ff0000" stroke-width="0.1" stroke-linejoin="miter" stroke-linecap="square"/>
    <path id="roof_left" d="M 92 87.471 L 212 87.471 L 212 140.622 L 92 140.622 Z" fill="none" stroke="#ff0000" stroke-width="0.1" stroke-linejoin="miter" stroke-linecap="square"/>
    <path id="roof_right" d="M 224 87.471 L 344 87.471 L 344 140.622 L 224 140.622 Z" fill="none" stroke="#ff0000" stroke-width="0.1" stroke-linejoin="miter" stroke-linecap="square"/>
  </g>
</svg>
