<?xml version="1.0" encoding="UTF-8"?>
<svg xmlns="http://www.w3.org/2000/svg" width="538mm" height="174mm" viewBox="-11 -11 538 174">
  <title>cuboid_practice_draw.svg</title>
  <g id="black-inner-lines" fill="none" stroke="#000000" stroke-width="0.35">
    <path id="top_black" d="M 0 0 L 120 0 L 120 80 L 0 80 Z"/>
    <path id="bottom_black" d="M 132 0 L 252 0 L 252 80 L 132 80 Z"/>
    <path id="front_black" d="M 264 0 L 384 0 L 384 60 L 264 60 Z"/>
    <path id="back_black" d="M 396 0 L 516 0 L 516 60 L 396 60 Z"/>
    <path id="left_black" d="M 0 92 L 80 92 L 80 152 L 0 152 Z"/>
    <path id="right_black" d="M 92 92 L 172 92 L 172 152 L 92 152 Z"/>
  </g>
  <g id="gray-offset-lines" fill="none" stroke="#9ca3af" stroke-width="0.35">
    <path id="top_gray" d="M -3 -3 L 123 -3 L 123 83 L -3 83 Z"/>
    <path id="bottom_gray" d="M 129 -3 L 255 -3 L 255 83 L 129 83 Z"/>
    <path id="front_gray" d="M 261 -3 L 387 -3 L 387 63 L 261 63 Z"/>
    <path id="back_gray" d="M 393 -3 L 519 -3 L 519 63 L 393 63 Z"/>
    <path id="left_gray" d="M -3 89 L 83 89 L 83 155 L -3 155 Z"/>
    <path id="right_gray" d="M 89 89 L 175 89 L 175 155 L 89 155 Z"/>
  </g>
  <g id="red-cut-lines" fill="none" stroke="#ff0000" stroke-width="0.2" stroke-linejoin="miter" stroke-linecap="square">
    <path id="top_red" d="M 0 0 L 10 0 L 10 -3 L 20 -3 L 20 0 L 32.5 0 L 32.5 -3 L 42.5 -3 L 42.5 0 L 55 0 L 55 -3 L 65 -3 L 65 0 L 77.5 0 L 77.5 -3 L 87.5 -3 L 87.5 0 L 100 0 L 100 -3 L 110 -3 L 110 0 L 120 0 L 123 -3 L 123 83 L 113 83 L 113 80 L 102.85 80 L 102.85 83 L 89.037 83 L 89.037 80 L 78.888 80 L 78.888 83 L 65.075 83 L 65.075 80 L 54.925 80 L 54.925 83 L 41.113 83 L 41.113 80 L 30.963 80 L 30.963 83 L 17.15 83 L 17.15 80 L 7 80 L 7 83 L -3 83 L -3 -3 Z"/>
    <path id="bottom_red" d="M 132 0 L 142 0 L 142 -3 L 152 -3 L 152 0 L 164.5 0 L 164.5 -3 L 174.5 -3 L 174.5 0 L 187 0 L 187 -3 L 197 -3 L 197 0 L 209.5 0 L 209.5 -3 L 219.5 -3 L 219.5 0 L 232 0 L 232 -3 L 242 -3 L 242 0 L 252 0 L 255 -3 L 255 83 L 245 83 L 245 80 L 234.85 80 L 234.85 83 L 221.037 83 L 221.037 80 L 210.887 80 L 210.887 83 L 197.075 83 L 197.075 80 L 186.925 80 L 186.925 83 L 173.113 83 L 173.113 80 L 162.963 80 L 162.963 83 L 149.15 83 L 149.15 80 L 139 80 L 139 83 L 129 83 L 129 -3 Z"/>
    <path id="front_red" d="M 264 0 L 274 0 L 274 -3 L 284 -3 L 284 0 L 296.5 0 L 296.5 -3 L 306.5 -3 L 306.5 0 L 319 0 L 319 -3 L 329 -3 L 329 0 L 341.5 0 L 341.5 -3 L 351.5 -3 L 351.5 0 L 364 0 L 364 -3 L 374 -3 L 374 0 L 384 0 L 387 -3 L 387 63 L 377 63 L 377 60 L 366.85 60 L 366.85 63 L 353.038 63 L 353.038 60 L 342.887 60 L 342.887 63 L 329.075 63 L 329.075 60 L 318.925 60 L 318.925 63 L 305.113 63 L 305.113 60 L 294.962 60 L 294.962 63 L 281.15 63 L 281.15 60 L 271 60 L 271 63 L 261 63 L 261 -3 Z"/>
    <path id="back_red" d="M 396 0 L 406 0 L 406 -3 L 416 -3 L 416 0 L 428.5 0 L 428.5 -3 L 438.5 -3 L 438.5 0 L 451 0 L 451 -3 L 461 -3 L 461 0 L 473.5 0 L 473.5 -3 L 483.5 -3 L 483.5 0 L 496 0 L 496 -3 L 506 -3 L 506 0 L 516 0 L 519 -3 L 519 63 L 509 63 L 509 60 L 498.85 60 L 498.85 63 L 485.038 63 L 485.038 60 L 474.887 60 L 474.887 63 L 461.075 63 L 461.075 60 L 450.925 60 L 450.925 63 L 437.113 63 L 437.113 60 L 426.962 60 L 426.962 63 L 413.15 63 L 413.15 60 L 403 60 L 403 63 L 393 63 L 393 -3 Z"/>
    <path id="left_red" d="M 0 92 L 10 92 L 10 89 L 20 89 L 20 92 L 60 92 L 60 89 L 70 89 L 70 92 L 80 92 L 83 89 L 83 155 L 73 155 L 73 152 L 62.85 152 L 62.85 155 L 45.075 155 L 45.075 152 L 34.925 152 L 34.925 155 L 17.15 155 L 17.15 152 L 7 152 L 7 155 L -3 155 L -3 89 Z"/>
    <path id="right_red" d="M 92 92 L 102 92 L 102 89 L 112 89 L 112 92 L 152 92 L 152 89 L 162 89 L 162 92 L 172 92 L 175 89 L 175 155 L 165 155 L 165 152 L 154.85 152 L 154.85 155 L 137.075 155 L 137.075 152 L 126.925 152 L 126.925 155 L 109.15 155 L 109.15 152 L 99 152 L 99 155 L 89 155 L 89 89 Z"/>
  </g>
</svg>
