<?xml version="1.0" encoding="UTF-8"?>
<svg xmlns="http://www.w3.org/2000/svg" width="522mm" height="214.868mm" viewBox="-11 -11.868 522 214.868">
  <title>gable_house_practice_draw.svg</title>
  <g id="black-inner-lines" fill="none" stroke="#000000" stroke-width="0.35">
    <path id="floor_black" d="M 0 0 L 126 0 L 126 86 L 0 86 Z"/>
    <path id="left_wall_black" d="M 138 0 L 264 0 L 264 55 L 138 55 Z"/>
    <path id="right_wall_black" d="M 276 0 L 402 0 L 402 55 L 276 55 Z"/>
    <path id="front_gable_black" d="M 414 90 L 500 90 L 500 35 L 457 0 L 414 35 Z"/>
    <path id="back_gable_black" d="M 0 192 L 86 192 L 86 137 L 43 102 L 0 137 Z"/>
    <path id="roof_left_black" d="M 98 102 L 224 102 L 224 157.471 L 98 157.471 Z"/>
    <path id="roof_right_black" d="M 236 102 L 362 102 L 362 157.471 L 236 157.471 Z"/>
  </g>
  <g id="gray-offset-lines" fill="none" stroke="#9ca3af" stroke-width="0.35">
    <path id="floor_gray" d="M -3 -3 L 129 -3 L 129 89 L -3 89 Z"/>
    <path id="left_wall_gray" d="M 135 -3 L 267 -3 L 267 58 L 135 58 Z"/>
    <path id="right_wall_gray" d="M 273 -3 L 405 -3 L 405 58 L 273 58 Z"/>
    <path id="front_gable_gray" d="M 411 93 L 503 93 L 503 33.574 L 457 -3.868 L 411 33.574 Z"/>
    <path id="back_gable_gray" d="M -3 195 L 89 195 L 89 135.574 L 43 98.132 L -3 135.574 Z"/>
    <path id="roof_left_gray" d="M 95 99 L 227 99 L 227 160.471 L 95 160.471 Z"/>
    <path id="roof_right_gray" d="M 233 99 L 365 99 L 365 160.471 L 233 160.471 Z"/>
  </g>
  <g id="red-cut-lines" fill="none" stroke="#ff0000" stroke-width="0.2" stroke-linejoin="miter" stroke-linecap="square">
    <path id="floor_red" d="M 0 0 L 10 0 L 10 -3 L 20 -3 L 20 0 L 34 0 L 34 -3 L 44 -3 L 44 0 L 58 0 L 58 -3 L 68 -3 L 68 0 L 82 0 L 82 -3 L 92 -3 L 92 0 L 106 0 L 106 -3 L 116 -3 L 116 0 L 126 0 L 129 -3 L 129 89 L 119 89 L 119 86 L 108.85 86 L 108.85 89 L 93.537 89 L 93.537 86 L 83.388 86 L 83.388 89 L 68.075 89 L 68.075 86 L 57.925 86 L 57.925 89 L 42.613 89 L 42.613 86 L 32.463 86 L 32.463 89 L 17.15 89 L 17.15 86 L 7 86 L 7 89 L -3 89 L -3 -3 Z"/>
    <path id="left_wall_red" d="M 138 0 L 148 0 L 148 -3 L 158 -3 L 158 0 L 172 0 L 172 -3 L 182 -3 L 182 0 L 196 0 L 196 -3 L 206 -3 L 206 0 L 220 0 L 220 -3 L 230 -3 L 230 0 L 244 0 L 244 -3 L 254 -3 L 254 0 L 264 0 L 267 -3 L 267 58 L 257 58 L 257 55 L 246.85 55 L 246.85 58 L 231.537 58 L 231.537 55 L 221.387 55 L 221.387 58 L 206.075 58 L 206.075 55 L 195.925 55 L 195.925 58 L 180.613 58 L 180.613 55 L 170.463 55 L 170.463 58 L 155.15 58 L 155.15 55 L 145 55 L 145 58 L 135 58 L 135 -3 Z"/>
    <path id="right_wall_red" d="M 276 0 L 286 0 L 286 -3 L 296 -3 L 296 0 L 310 0 L 310 -3 L 320 -3 L 320 0 L 334 0 L 334 -3 L 344 -3 L 344 0 L 358 0 L 358 -3 L 368 -3 L 368 0 L 382 0 L 382 -3 L 392 -3 L 392 0 L 402 0 L 405 -3 L 405 58 L 395 58 L 395 55 L 384.85 55 L 384.85 58 L 369.538 58 L 369.538 55 L 359.387 55 L 359.387 58 L 344.075 58 L 344.075 55 L 333.925 55 L 333.925 58 L 318.613 58 L 318.613 55 L 308.462 55 L 308.462 58 L 293.15 58 L 293.15 55 L 283 55 L 283 58 L 273 58 L 273 -3 Z"/>
    <path id="front_gable_red" d="M 414 90 L 424 90 L 424 93 L 434 93 L 434 90 L 452 90 L 452 93 L 462 93 L 462 90 L 480 90 L 480 93 L 490 93 L 490 90 L 500 90 L 503 93 L 503 33.574 L 483.936 18.056 L 482.457 20.667 L 474.585 14.259 L 476.064 11.649 L 457 -3.868 L 411 33.574 L 411 93 Z"/>
    <path id="back_gable_red" d="M 0 192 L 10 192 L 10 195 L 20 195 L 20 192 L 38 192 L 38 195 L 48 195 L 48 192 L 66 192 L 66 195 L 76 195 L 76 192 L 86 192 L 89 195 L 89 135.574 L 69.936 120.056 L 68.457 122.667 L 60.585 116.259 L 62.064 113.649 L 43 98.132 L -3 135.574 L -3 195 Z"/>
    <path id="roof_left_red" d="M 98 102 L 108 102 L 108 99 L 118 99 L 118 102 L 132 102 L 132 99 L 142 99 L 142 102 L 156 102 L 156 99 L 166 99 L 166 102 L 180 102 L 180 99 L 190 99 L 190 102 L 204 102 L 204 99 L 214 99 L 214 102 L 224 102 L 227 99 L 227 160.471 L 217 160.471 L 217 157.471 L 206.85 157.471 L 206.85 160.471 L 191.537 160.471 L 191.537 157.471 L 181.387 157.471 L 181.387 160.471 L 166.075 160.471 L 166.075 157.471 L 155.925 157.471 L 155.925 160.471 L 140.613 160.471 L 140.613 157.471 L 130.463 157.471 L 130.463 160.471 L 115.15 160.471 L 115.15 157.471 L 105 157.471 L 105 160.471 L 95 160.471 L 95 99 Z"/>
    <path id="roof_right_red" d="M 236 102 L 246 102 L 246 99 L 256 99 L 256 102 L 270 102 L 270 99 L 280 99 L 280 102 L 294 102 L 294 99 L 304 99 L 304 102 L 318 102 L 318 99 L 328 99 L 328 102 L 342 102 L 342 99 L 352 99 L 352 102 L 362 102 L 365 99 L 365 160.471 L 355 160.471 L 355 157.471 L 344.85 157.471 L 344.85 160.471 L 329.538 160.471 L 329.538 157.471 L 319.387 157.471 L 319.387 160.471 L 304.075 160.471 L 304.075 157.471 L 293.925 157.471 L 293.925 160.471 L 278.613 160.471 L 278.613 157.471 L 268.462 157.471 L 268.462 160.471 L 253.15 160.471 L 253.15 157.471 L 243 157.471 L 243 160.471 L 233 160.471 L 233 99 Z"/>
  </g>
</svg>
